<svg xmlns="http://www.w3.org/2000/svg" version="1.1" xmlns:xlink="http://www.w3.org/1999/xlink" xmlns:svgjs="http://svgjs.dev/svgjs" width="1000" height="1000" viewBox="0 0 1000 1000"><rect width="1000" height="1000" fill="#000000"></rect><g transform="matrix(0.7,0,0,0.7,150,219.1358699200045)"><svg viewBox="0 0 448 360" data-background-color="#ffffff" preserveAspectRatio="xMidYMid meet" height="803" width="1000" xmlns="http://www.w3.org/2000/svg" xmlns:xlink="http://www.w3.org/1999/xlink"><g id="tight-bounds" transform="matrix(1,0,0,1,0,-0.11904140046539169)"><svg viewBox="0 0 448 360" height="360" width="448"><g><svg></svg></g><g><svg viewBox="0 0 448 360" height="360" width="448"><g><path transform="translate(36.9151,-7.08178) scale(0.00624,0.00624)" d="M25167 8301c221 0 400 179 400 400 0 221-179 400-400 400h-3824l-2753 2753c-156 156-409 156-566 0-156-156-156-409 0-566l2188-2188h-6475c-1847 0-3071 431-3819 1301-760 885-1068 2254-1068 4110 0 11 0 22-1 33l34 5884 2356-2356c156-156 409-156 566 0 156 156 156 409 0 566l-2915 2915c33 5746 31 11443-2 17189 4087 4041 8117 8068 12157 12154h4070c221 0 400 179 400 400 0 221-179 400-400 400h-3279l4160 4208 1-1c1313 1313 2498 2062 3660 2151 1146 87 2316-474 3622-1779l4579-4579h-3323c-221 0-400-179-400-400 0-221 179-400 400-400h4123l2666-2666c156-156 409-156 566 0 156 156 156 409 0 566l-2101 2101h6475c1847 0 3071-431 3819-1301 760-885 1068-2254 1068-4110h2l-34-5917-2568 2568c-156 156-409 156-566 0-156-156-156-409 0-566l3127-3127c-33-5746-31-11443 2-17189-4087-4041-8117-8068-12157-12154h-4193c-221 0-400-179-400-400 0-221 179-400 400-400h3402l-4141-4189c-7-6-13-12-20-18-1313-1313-2498-2062-3660-2151-1146-87-2316 474-3622 1779l-4579 4579h3024zM13737 8301h7275l5144-5144c1483-1483 2856-2116 4247-2010 1374 104 2719 934 4167 2382 8 8 15 15 22 23l4695 4749h6977c2096 0 3515 524 4425 1583 898 1045 1261 2582 1261 4629 0 13-1 25-2 37l-36 6373 4559 4508 1-1c1448 1448 2278 2792 2382 4167 106 1391-528 2764-2010 4247l-4934 4934 38 6710h2c0 2047-364 3584-1261 4629-910 1059-2329 1583-4425 1583h-7275l-5144 5144c-1483 1483-2856 2116-4247 2010-1374-104-2719-934-4167-2382l1-1-4718-4772h-6977c-2096 0-3515-524-4425-1583-898-1045-1261-2582-1261-4629h2l37-6410-4537-4485c-8-7-16-14-23-22-1448-1448-2278-2792-2382-4167-106-1391 528-2764 2010-4247l4934-4934-38-6672c-1-12-2-25-2-37 0-2047 364-3584 1261-4629 910-1059 2329-1583 4425-1583zM8141 30000l-44-7653-4374 4374c-1305 1305-1866 2476-1779 3622 88 1162 838 2348 2151 3660 6 6 13 13 18 20l3983 3937 45-7961zM8882 39860l-32 5627h2c0 1857 308 3226 1068 4110 748 871 1972 1301 3819 1301h6186l-5380-5442-5662-5597zM46264 9101h-6186l5380 5442 5662 5597 32-5594c-1-11-1-22-1-33 0-1857-308-3226-1068-4110-748-871-1972-1301-3819-1301zM51906 22039l-45 7961 44 7653 4374-4374c1305-1305 1866-2476 1779-3622-88-1163-838-2348-2151-3660l1-1-4002-3956z" fill="#ffffff" fill-rule="nonzero" stroke="none" stroke-width="1" stroke-linecap="butt" stroke-linejoin="miter" stroke-miterlimit="10" stroke-dasharray="" stroke-dashoffset="0" font-family="none" font-weight="none" font-size="none" text-anchor="none" style="mix-blend-mode: normal" data-fill-palette-color="tertiary"></path></g><g transform="matrix(1,0,0,1,112,127.4810382397632)"><svg viewBox="0 0 224 105.03792352047363" height="105.03792352047363" width="224"><g><svg viewBox="0 0 224 105.03792352047363" height="105.03792352047363" width="224"><g><svg viewBox="0 0 224 105.03792352047363" height="105.03792352047363" width="224"><g transform="matrix(1,0,0,1,0,63.486862839664546)"><svg viewBox="0 0 224 41.55106068080908" height="41.55106068080908" width="224"><g id="textblocktransform"><svg viewBox="0 0 224 41.55106068080908" height="41.55106068080908" width="224" id="textblock"><g><svg viewBox="0 0 224 41.55106068080908" height="41.55106068080908" width="224"><g transform="matrix(1,0,0,1,0,0)"><svg width="224" viewBox="2.85 -37.1 202.69 37.6" height="41.55106068080908" data-palette-color="#636365"><path d="M25.55-35L37.35-35 37.35 0 25.55 0 25.55-12.9 14.65-12.9 14.65 0 2.85 0 2.85-35 14.65-35 14.65-22.6 25.55-22.6 25.55-35ZM53.45-24.4Q56.45-27.85 62.3-27.85L62.3-27.85 62.3-17.85Q60.95-18.05 59.8-18.05L59.8-18.05Q54-18.05 54-12.15L54-12.15 54 0 42.7 0 42.7-27.35 53.45-27.35 53.45-24.4ZM113.09-31.15L109.19-22.75Q105.14-25 100.99-25.85L100.99-25.85 100.99 0 89.19 0 89.19-25.85Q85.04-25 80.99-22.75L80.99-22.75 77.09-31.15Q80.84-33.4 85.49-34.6 90.14-35.8 95.09-35.8L95.09-35.8Q100.04-35.8 104.69-34.6 109.34-33.4 113.09-31.15L113.09-31.15ZM127.39-7.85Q129.19-7.85 130.42-8.3 131.64-8.75 133.09-9.85L133.09-9.85 138.99-3.9Q134.89 0.5 127.04 0.5L127.04 0.5Q122.09 0.5 118.34-1.33 114.59-3.15 112.54-6.4 110.49-9.65 110.49-13.7L110.49-13.7Q110.49-17.8 112.54-21.03 114.59-24.25 118.17-26.05 121.74-27.85 126.19-27.85L126.19-27.85Q130.24-27.85 133.64-26.23 137.04-24.6 139.04-21.43 141.04-18.25 141.04-13.85L141.04-13.85 122.34-10.25Q123.59-7.85 127.39-7.85L127.39-7.85ZM126.24-20.15Q124.29-20.15 123.07-19 121.84-17.85 121.59-15.6L121.59-15.6 130.34-17.3Q129.89-18.6 128.81-19.38 127.74-20.15 126.24-20.15L126.24-20.15ZM159.29 0.5Q154.64 0.5 150.96-1.3 147.29-3.1 145.21-6.35 143.14-9.6 143.14-13.7L143.14-13.7Q143.14-17.8 145.21-21.03 147.29-24.25 150.96-26.05 154.64-27.85 159.29-27.85L159.29-27.85Q164.29-27.85 167.84-25.7 171.39-23.55 172.74-19.75L172.74-19.75 163.99-15.45Q162.39-19.05 159.24-19.05L159.24-19.05Q157.24-19.05 155.91-17.65 154.59-16.25 154.59-13.7L154.59-13.7Q154.59-11.1 155.91-9.7 157.24-8.3 159.24-8.3L159.24-8.3Q162.39-8.3 163.99-11.9L163.99-11.9 172.74-7.6Q171.39-3.8 167.84-1.65 164.29 0.5 159.29 0.5L159.29 0.5ZM194.34-27.85Q199.39-27.85 202.46-24.8 205.54-21.75 205.54-15.6L205.54-15.6 205.54 0 194.24 0 194.24-13.65Q194.24-18.35 190.89-18.35L190.89-18.35Q188.99-18.35 187.81-17.03 186.64-15.7 186.64-12.85L186.64-12.85 186.64 0 175.34 0 175.34-37.1 186.64-37.1 186.64-25.15Q189.78-27.85 194.34-27.85L194.34-27.85Z" opacity="1" transform="matrix(1,0,0,1,0,0)" fill="#ffffff" class="wordmark-text-0" data-fill-palette-color="primary" id="text-0"></path></svg></g></svg></g></svg></g></svg></g><g transform="matrix(1,0,0,1,76.16495670043882,0)"><svg viewBox="0 0 71.67008659912236 57.42356586087816" height="57.42356586087816" width="71.67008659912236"><g><svg xmlns="http://www.w3.org/2000/svg" xmlns:xlink="http://www.w3.org/1999/xlink" version="1.1" x="0" y="0" viewBox="4.457 13.511 91.08600000000001 72.97999999999999" enable-background="new 0 0 100 100" xml:space="preserve" height="57.42356586087816" width="71.67008659912236" class="icon-icon-0" data-fill-palette-color="accent" id="icon-0"><g fill="#89939e" data-fill-palette-color="accent"><path d="M50 56c8.271 0 15-6.729 15-15 0-8.271-6.729-15-15-15-8.271 0-15 6.729-15 15S41.729 56 50 56zM36.276 41c0-7.566 6.156-13.724 13.724-13.724 7.566 0 13.723 6.156 13.723 13.724 0 2.977-0.955 5.729-2.57 7.979-0.145-2.795-1.584-3.842-1.584-3.842-0.598-1.332-4.258-2.486-4.258-2.486-1.367-0.479-1.783-0.961-1.91-1.206-0.014-0.029-0.023-0.057-0.033-0.079 0-0.005 0-0.008 0-0.011 0 0-0.01-0.029-0.021-0.075 0-0.002 0-0.002 0-0.002-0.054-0.188-0.184-0.674-0.184-0.793 0 0-0.008 0.039-0.021 0.105-0.011-0.117-0.014-0.242-0.007-0.377 0 0-0.01 0.013-0.032 0.034 0.455-0.581 0.822-1.246 1.067-1.922 0.416-0.416 0.629-1.429 0.629-1.429 0.276-0.773 0.195-1.17 0.068-1.37 0.04-0.117 0.702-2.171-0.234-3.754 0 0-0.334-1.498-2.097-2.163-1.631-0.998-4.06-0.398-4.06-0.398-2.961 0.499-3.596 3.981-3.596 3.981-0.177 1.591 0.25 2.585 0.268 2.626-0.151 0.376 0.123 1.361 0.123 1.361 0.096 0.602 0.39 0.783 0.476 0.824 0.206 0.747 0.562 1.475 1.01 2.104-0.003-0.003-0.006-0.006-0.01-0.009 0 0 0.05 0.244 0.004 0.586-0.007-0.035-0.01-0.057-0.01-0.057 0 0.141-0.171 0.648-0.191 0.716-0.001 0.004-0.003 0.007-0.005 0.011-0.139 0.185-0.273 0.351-0.41 0.502-1.104 0.853-3.754 1.656-3.754 1.656-1.154 0.444-1.643 1.108-1.643 1.108-1.202 1.779-1.655 3.558-1.819 4.453C37.259 46.813 36.276 44.02 36.276 41z" fill="#ffffff" data-fill-palette-color="accent"></path><path d="M92.826 13.511H50.754h-1.433H7.247c-1.499 0-2.79 1.14-2.79 2.639v51.865 0.184 4.804 0.303c0 1.499 1.291 2.759 2.79 2.759h33.697c-0.039 0.859-0.308 4.557-2.065 6.35-1.386 1.41-3.313 2.736-2.56 3.416 0.183 0.416 1.046 0.66 3.011 0.66 4.333 0 9.027 0 10.745 0 0.435 0 0.679 0 0.679 0 1.717 0 6.412 0 10.744 0 2.24 0 3.021-0.367 3.029-0.914h-0.078v-0.184h-0.078c-0.102-0.734-1.592-1.828-2.721-2.979-1.76-1.793-2.027-5.489-2.068-6.35h33.246c1.498 0 2.715-1.26 2.715-2.759v-0.303-4.804-0.184V16.151C95.541 14.651 94.326 13.511 92.826 13.511zM49.999 73.433c-0.978 0-1.771-0.792-1.771-1.77 0-0.979 0.793-1.771 1.771-1.771s1.771 0.793 1.771 1.771C51.77 72.641 50.977 73.433 49.999 73.433zM91.701 64.175H8.299V17.17h83.402V64.175z" fill="#ffffff" data-fill-palette-color="accent"></path></g></svg></g></svg></g><g></g></svg></g></svg></g></svg></g></svg></g><defs></defs></svg><rect width="448" height="360" fill="none" stroke="none" visibility="hidden"></rect></g></svg></g></svg>